# xmcd
#
# Track frame offsets: 
#        150
#        18260
#        40200
#        59883
#        95631
#        117383
#        135300
#        156124
#        175575
#        203265
#        227633
#        252472
#
# Disc length: 3856 seconds
#
# Revision: 1
# Processed by: cddbd v1.5.2PL0 Copyright (c) Steve Scherf et al.
# Submitted via: ExactAudioCopyFreeDBPlugin 1.0
#
DISCID=9a0f0e0c
DTITLE=Vari - 179 All In One
DYEAR=2007
DGENRE=New Age
TTITLE0=Michael Stribling - Driven
TTITLE1=Jean-Francois Maljean - Silk road theme
TTITLE2=Mark Barnes - One, four, three
TTITLE3=Kitaro - A passage for life
TTITLE4=The Fairytale - Land Of Beauty
TTITLE5=Sean Manken - Flight of the hero
TTITLE6=Sonic Adventure Project - Memories of I am
TTITLE7=Davide Caprelli - The shroud
TTITLE8=Eric Wollo - Red odissey
TTITLE9=Mary-Kathryn - Incense of praise
TTITLE10=Food For Fantasy - The secret of dreamin’
TTITLE11=Capitanata - Targete
EXTD=YEAR: 2007
EXTT0=
EXTT1=
EXTT2=
EXTT3=
EXTT4=
EXTT5=
EXTT6=
EXTT7=
EXTT8=
EXTT9=
EXTT10=
EXTT11=
PLAYORDER=
